<?xml version="1.0" encoding="utf-8"?>
<!-- Generator: Adobe Illustrator 20.1.0, SVG Export Plug-In . SVG Version: 6.00 Build 0)  -->
<svg version="1.1" id="Layer_1" xmlns="http://www.w3.org/2000/svg" xmlns:xlink="http://www.w3.org/1999/xlink" x="0px" y="0px"
	 viewBox="0 0 300 300" style="enable-background:new 0 0 300 300;" xml:space="preserve">
<g>
	<path d="M151,2C69.4,2,3,68.4,3,150s66.4,148,148,148s148-66.4,148-148S232.6,2,151,2z M151,282c-36.3,0-69.1-14.7-93-38.4
		c-9.5-9.5-17.6-20.4-23.9-32.4C24.4,192.8,19,172,19,150C19,77.2,78.2,18,151,18c34.5,0,66,13.3,89.5,35.1
		c12.2,11.3,22.3,24.8,29.6,40c8.3,17.2,12.9,36.5,12.9,56.9C283,222.8,223.8,282,151,282z"/>
	<circle cx="102.7" cy="117" r="16"/>
	<circle cx="201.7" cy="117" r="16"/>
	<path d="M150.7,232c31,0,60.6-15.8,77.6-42.1l-13.4-8.7c-15.6,24.1-44.1,37.6-72.7,34.3c-22.3-2.6-42.8-15.4-55.1-34.3l-13.4,8.7
		c14.8,22.9,39.7,38.4,66.7,41.5C143.8,231.8,147.3,232,150.7,232z"/>
</g>
</svg>
